<svg width="338" height="47" viewBox="0 0 338 47" fill="none" xmlns="http://www.w3.org/2000/svg">
<path d="M158.621 3.53111C158.621 1.13765 160.209 0.000167847 163.408 0.000167847C166.631 0.000167847 168.218 1.16135 168.218 4.05245C168.218 7.32272 164.948 11.0669 162.46 13.5078L160.067 13.4367C161.702 11.3039 163.005 9.31331 163.597 7.06204H163.195C160.185 7.06204 158.621 5.94826 158.621 3.53111Z" fill="#97BC87"/>
<path d="M182.441 37.7751C176.706 37.7751 170.805 36.7324 166.634 34.6233C167.037 32.372 167.037 30.1208 166.634 27.8695C169.999 30.4288 176.398 32.0877 182.133 32.0877C186.635 32.0877 188.768 30.9739 188.768 29.007C188.768 22.7745 166.611 30.2155 166.611 18.3431C166.611 10.9257 175.71 10.0252 181.73 10.0252C187.322 10.0252 191.161 10.9257 195.688 12.2054C195.332 14.4804 195.379 16.7079 195.806 18.9829C191.896 17.0634 187.204 15.3809 181.279 15.3809C176.658 15.3809 174.573 16.2577 174.573 18.3431C174.573 25.0732 196.944 16.9449 196.944 29.0781C196.944 35.2157 191.398 37.7751 182.441 37.7751Z" fill="white"/>
<path d="M151.794 37.0638C151.201 34.623 150.988 32.1821 150.941 29.7413H150.301C148.429 34.6704 144.424 37.6326 137.67 37.6326C130.584 37.6326 127.693 34.2675 127.693 30.4996C127.693 24.8596 132.575 21.2339 142.552 21.2339H150.727C150.325 17.6555 147.907 15.7834 142.504 15.7834C136.627 15.7834 131.509 17.7977 128.546 20.6888C128.902 18.3427 128.902 15.6175 128.546 13.2715C132.267 11.6126 136.959 10.0723 143.547 10.0723C153.287 10.0723 158.879 13.3189 158.927 21.8974C158.95 28.0351 158.785 32.2532 160.941 37.0638H151.794ZM136.556 28.7697C136.556 30.9736 138.594 32.3717 141.722 32.3717C146.794 32.3717 149.827 28.7697 150.609 24.5752H147.078C140.135 24.5752 136.556 25.8075 136.556 28.7697Z" fill="white"/>
<path d="M117.713 37.6565C111.836 37.6565 106.362 35.5 106.362 28.0827C106.362 26.2817 106.362 21.2578 106.244 15.9495C103.874 16.0443 101.575 16.2102 99.4424 16.4472C99.7742 14.6936 99.7742 12.6793 99.4424 10.9257C101.528 11.1389 103.803 11.3048 106.125 11.3996C106.03 8.4611 105.888 5.68849 105.699 3.6031C109.087 3.24764 111.955 2.77369 114.49 1.54141L114.253 11.5655C118.78 11.5181 123.258 11.2811 127.216 10.9257C126.884 12.6793 126.884 14.6936 127.216 16.4472C123.235 16.068 118.709 15.8547 114.182 15.8074C114.111 18.888 114.088 21.8265 114.088 24.3622C114.088 30.097 116.671 31.6136 119.965 31.661C122.358 31.6847 125.036 31.0212 127.169 30.3814C126.837 32.2061 126.837 34.3152 127.169 36.1399C124.562 36.9456 121.055 37.6802 117.713 37.6565Z" fill="white"/>
<path d="M85.6959 37.7751C79.9611 37.7751 74.0604 36.7324 69.8896 34.6233C70.2925 32.372 70.2925 30.1208 69.8896 27.8695C73.2547 30.4288 79.653 32.0877 85.3878 32.0877C89.8904 32.0877 92.0232 30.9739 92.0232 29.007C92.0232 22.7745 69.8659 30.2155 69.8659 18.3431C69.8659 10.9257 78.9658 10.0252 84.985 10.0252C90.5776 10.0252 94.4166 10.9257 98.9428 12.2054C98.5874 14.4804 98.6348 16.7079 99.0613 18.9829C95.1512 17.0634 90.4591 15.3809 84.5347 15.3809C79.9137 15.3809 77.8283 16.2577 77.8283 18.3431C77.8283 25.0732 100.199 16.9449 100.199 29.0781C100.199 35.2157 94.6536 37.7751 85.6959 37.7751Z" fill="white"/>
<path d="M59.4832 37.0638C58.8907 34.623 58.6775 32.1821 58.6301 29.7413H57.9902C56.1181 34.6704 52.1132 37.6326 45.3594 37.6326C38.2738 37.6326 35.3827 34.2675 35.3827 30.4996C35.3827 24.8596 40.2644 21.2339 50.2411 21.2339H58.4168C58.0139 17.6555 55.5968 15.7834 50.1937 15.7834C44.3167 15.7834 39.198 17.7977 36.2358 20.6888C36.5913 18.3427 36.5913 15.6175 36.2358 13.2715C39.9564 11.6126 44.6485 10.0723 51.2364 10.0723C60.9761 10.0723 66.5687 13.3189 66.6161 21.8974C66.6398 28.0351 66.4739 32.2532 68.6304 37.0638H59.4832ZM44.2456 28.7697C44.2456 30.9736 46.2836 32.3717 49.4117 32.3717C54.483 32.3717 57.5163 28.7697 58.2983 24.5752H54.7674C47.824 24.5752 44.2456 25.8075 44.2456 28.7697Z" fill="white"/>
<path d="M0 11.992C2.9385 11.7788 6.25616 11.1389 9.05247 10.2858C8.88659 13.0347 8.7444 15.9021 8.67331 18.8169H9.14726C10.7824 14.1248 14.2422 10.0014 21.0197 10.0014C28.9347 10.0014 34.4326 15.6415 34.4326 23.6986C34.4326 31.9691 28.8399 37.8698 20.0481 37.8698C14.3607 37.8698 10.4506 35.2157 8.53113 30.4998C8.55482 36.0688 8.7444 41.614 9.05247 46.7801H0C0.734625 35.7607 0.734625 22.9877 0 11.992ZM8.53113 27.8931L8.62592 28.059L8.53113 27.6798V27.8931ZM8.72071 28.2249C11.1379 32.135 14.5266 32.9644 17.1096 32.9644C22.0387 32.9644 26.1621 30.0022 26.1621 24.1252C26.1621 19.1724 23.0814 15.6652 17.868 15.6652C10.4743 15.6652 8.31785 22.3716 8.72071 28.2249Z" fill="white"/>
<path d="M328.277 36.8861C322.4 36.8861 316.926 34.7296 316.926 27.3123C316.926 25.5112 316.926 20.4874 316.808 15.1791C314.438 15.2739 312.139 15.4398 310.006 15.6768C310.338 13.9231 310.338 11.9088 310.006 10.1552C312.092 10.3685 314.367 10.5344 316.689 10.6292C316.594 7.69067 316.452 4.91806 316.263 2.83267C319.651 2.47721 322.519 2.00325 325.054 0.770981L324.817 10.7951C329.344 10.7477 333.822 10.5107 337.78 10.1552C337.448 11.9088 337.448 13.9231 337.78 15.6768C333.799 15.2976 329.273 15.0843 324.746 15.0369C324.675 18.1176 324.651 21.0561 324.651 23.5917C324.651 29.3266 327.235 30.8432 330.528 30.8906C332.922 30.9143 335.6 30.2508 337.733 29.6109C337.401 31.4356 337.401 33.5447 337.733 35.3694C335.126 36.1752 331.619 36.9098 328.277 36.8861Z" fill="white"/>
<path d="M296.259 37.0051C290.524 37.0051 284.623 35.9624 280.453 33.8533C280.856 31.602 280.856 29.3508 280.453 27.0995C283.818 29.6588 290.216 31.3177 295.951 31.3177C300.453 31.3177 302.586 30.2039 302.586 28.237C302.586 22.0045 280.429 29.4456 280.429 17.5731C280.429 10.1557 289.529 9.25523 295.548 9.25523C301.141 9.25523 304.98 10.1557 309.506 11.4354C309.15 13.7104 309.198 15.9379 309.624 18.2129C305.714 16.2934 301.022 14.6109 295.098 14.6109C290.477 14.6109 288.391 15.4877 288.391 17.5731C288.391 24.3032 310.762 16.1749 310.762 28.3081C310.762 34.4457 305.217 37.0051 296.259 37.0051Z" fill="white"/>
<path d="M262.368 37.0284C251.681 37.0284 245.401 31.8623 245.401 23.1179C245.401 14.4209 251.681 9.27855 262.368 9.27855C273.032 9.27855 279.312 14.4209 279.312 23.1179C279.312 31.8623 273.032 37.0284 262.368 37.0284ZM262.368 31.886C267.724 31.886 270.9 28.7106 270.9 23.1179C270.9 17.9756 267.724 14.7764 262.368 14.7764C256.918 14.7764 253.837 17.9756 253.837 23.1179C253.837 28.7106 256.918 31.886 262.368 31.886Z" fill="white"/>
<path d="M209.947 11.2221C212.885 11.0088 216.203 10.369 218.999 9.51584C218.834 12.2648 218.691 15.1322 218.62 18.047H219.094C220.729 13.3548 224.189 9.23147 230.967 9.23147C238.882 9.23147 244.38 14.8715 244.38 22.9287C244.38 31.1991 238.787 37.0998 229.995 37.0998C224.308 37.0998 220.398 34.4457 218.478 29.7299C218.502 35.2988 218.691 40.844 218.999 46.0101H209.947C210.682 34.9907 210.682 22.2177 209.947 11.2221ZM218.478 27.1231L218.573 27.289L218.478 26.9099V27.1231ZM218.668 27.4549C221.085 31.365 224.474 32.1944 227.057 32.1944C231.986 32.1944 236.109 29.2322 236.109 23.3552C236.109 18.4024 233.028 14.8952 227.815 14.8952C220.421 14.8952 218.265 21.6016 218.668 27.4549Z" fill="white"/>
</svg>
